<svg xmlns="http://www.w3.org/2000/svg" width="48" height="48" viewBox="0 0 48 48">
    <g fill="none" fill-rule="evenodd">
        <path stroke="#FF8D8A" stroke-linecap="round" stroke-linejoin="round" stroke-width="2.5" d="M43.708 25.833v-3.666c0-.75-.536-1.394-1.274-1.531l-3.868-.706a15.244 15.244 0 0 0-1.412-3.392l2.237-3.236c.428-.62.35-1.457-.183-1.989l-2.549-2.52a1.55 1.55 0 0 0-1.98-.184l-3.245 2.237a15.244 15.244 0 0 0-3.392-1.412l-.705-3.868a1.558 1.558 0 0 0-1.504-1.274h-3.666c-.75 0-1.394.536-1.531 1.274l-.706 3.868a15.244 15.244 0 0 0-3.392 1.412l-3.217-2.237a1.55 1.55 0 0 0-1.98.183l-2.549 2.549a1.55 1.55 0 0 0-.183 1.98l2.237 3.245a15.244 15.244 0 0 0-1.412 3.391l-3.868.706a1.558 1.558 0 0 0-1.274 1.504v3.666c0 .75.536 1.394 1.274 1.531l3.868.706a15.244 15.244 0 0 0 1.412 3.392l-2.237 3.217a1.55 1.55 0 0 0 .183 1.98l2.549 2.548a1.55 1.55 0 0 0 1.98.184l3.245-2.237c1.07.606 2.208 1.08 3.391 1.412l.706 3.868c.135.728.764 1.26 1.504 1.274h3.666c.75 0 1.394-.536 1.531-1.274l.706-3.868a15.244 15.244 0 0 0 3.392-1.412l3.235 2.237c.62.428 1.458.35 1.99-.184l2.548-2.548a1.55 1.55 0 0 0 .183-1.98l-2.236-3.245a15.244 15.244 0 0 0 1.411-3.392l3.869-.705a1.558 1.558 0 0 0 1.246-1.504zM32.818 26.32a9.167 9.167 0 0 1-6.673 6.544M15.264 21.406a9.167 9.167 0 0 1 13.365-5.262M17.5 30.417a9.084 9.084 0 0 1-1.98-3.062"/>
        <path d="M2 2h44v44H2z"/>
    </g>
</svg>
