<svg xmlns="http://www.w3.org/2000/svg" width="48" height="48" viewBox="0 0 48 48">
    <g fill="none" fill-rule="evenodd">
        <path stroke="#FF8D8A" stroke-linecap="round" stroke-linejoin="round" stroke-width="2.5" d="M30.658 36.132l2 .019M40.464 33.912a9.708 9.708 0 0 1-3.918-7.65v-6.744C36.546 13.362 30.93 8.4 24 8.4s-12.546 4.986-12.546 11.142v6.72a9.708 9.708 0 0 1-3.918 7.65 2.4 2.4 0 0 0 .096 3.972l1.902 1.356a7.549 7.549 0 0 0 4.38 1.374h20.172a7.549 7.549 0 0 0 4.38-1.374l1.902-1.356a2.4 2.4 0 0 0 .096-3.972z"/>
        <path stroke="#FF8D8A" stroke-linecap="round" stroke-linejoin="round" stroke-width="2.5" d="M27.192 13.692c2.862.6 4.878 2.874 4.878 5.49v5.016M27.81 8.886V5.79c0-1.866-1.71-3.39-3.81-3.39s-3.81 1.512-3.81 3.378v3.096M29.604 40.614c0 2.748-2.508 4.986-5.604 4.986s-5.604-2.226-5.604-4.974M14 36.15h11.418"/>
        <circle cx="44" cy="4" r="4" fill="#FF2B26"/>
    </g>
</svg>
